<svg width="346" height="170" viewBox="0 0 346 170" fill="none" xmlns="http://www.w3.org/2000/svg">
<g clip-path="url(#clip0_103_607)">
<path d="M188.502 16.0354C190.832 15.8901 192.315 17.1402 193.613 18.5841C194.884 20.026 195.537 21.91 195.43 23.8291C195.346 25.6906 194.687 27.4804 193.546 28.953C192.998 29.6798 192.376 30.363 191.886 30.9493C193.098 30.8621 194.134 29.9802 195.108 28.9748L195.295 29.0378C195.019 29.8058 194.847 30.6295 194.452 31.3296C192.976 33.9437 190.619 35.2568 187.69 35.579C186.894 35.6654 186.088 35.59 185.321 35.3573C184.554 35.1245 183.842 34.7393 183.228 34.2247C181.966 33.2242 181.826 32.1073 182.775 30.7894C183.451 29.8518 184.132 28.9167 184.747 27.9403C185.123 27.3419 185.392 26.6709 185.103 25.869C184.008 28.4176 181.632 29.7234 179.788 31.6833C179.197 30.5326 178.698 29.503 178.143 28.4951C176.554 25.6219 174.178 23.4827 171.644 21.4694C169.294 19.5943 167.027 17.615 164.754 15.6551C163.171 14.2888 161.967 12.5362 161.261 10.5675C161.145 10.2477 160.973 9.94972 160.825 9.63962L160.648 9.66627C160.658 9.98405 160.684 10.3011 160.728 10.616C161.29 13.5231 162.894 15.8513 164.95 17.8839C167.056 19.9504 169.311 21.8571 171.392 23.9405C173.473 26.024 175.418 28.2214 177.339 30.4405C178.793 32.1364 180.072 34.0018 181.549 35.6831C184.246 38.7526 186.932 41.8415 189.81 44.739C193.458 48.3996 197.63 51.4255 202.393 53.5381C204.621 54.529 206.949 55.2776 209.396 55.5077C211.065 55.6995 212.743 55.7853 214.423 55.7645C216.874 55.6821 219.227 55.0523 221.516 54.1341C226.085 52.3001 229.476 49.0998 232.078 45.0394C233.871 42.1969 234.978 38.9764 235.312 35.6323C235.642 32.7057 235.632 29.8179 234.878 26.964C233.769 22.7801 231.848 19.0444 228.674 16.016C225.377 12.8341 221.21 10.7025 216.7 9.89158C211.172 8.85953 205.733 9.31257 200.389 10.9624C198.369 11.585 196.395 12.353 194.277 12.9902C194.498 12.6813 194.747 12.3934 195.021 12.1301C198.161 9.54343 201.615 7.36207 205.3 5.6374C208.18 4.30494 211.184 3.2632 214.338 2.86104C218.478 2.32806 222.516 2.73022 226.375 4.47453C228.884 5.6433 231.234 7.12393 233.372 8.88133C236.521 11.3985 238.854 14.5188 240.678 18.0414C242.117 20.8202 243.205 23.7588 243.585 26.8792C243.897 29.1564 244.031 31.4543 243.987 33.7523C243.868 37.4069 243.079 41.0086 241.659 44.378C240.425 47.2866 238.744 49.9842 236.676 52.3728C233.224 56.392 229.074 59.4494 224.108 61.2906C222.26 61.9762 220.273 62.3033 218.333 62.7175C215.891 63.2384 213.408 63.2287 210.944 62.984C207.098 62.6442 203.329 61.7016 199.776 60.1907C194.253 57.7802 189.398 54.3521 184.883 50.4032C181.617 47.5588 178.531 44.5141 175.643 41.2867C175.426 41.0155 175.224 40.7324 175.038 40.4388C174.913 40.5884 174.804 40.7509 174.713 40.9233C174.015 43.472 172.361 45.3956 170.563 47.2222C167.775 50.0398 164.531 52.2468 161.077 54.1583C160.878 54.278 160.641 54.3162 160.415 54.2649C160.864 53.8942 161.317 53.5381 161.755 53.1529C165.185 50.19 167.903 46.6553 169.529 42.4423C170.784 39.1887 170.6 35.8406 168.991 32.6403C168.082 30.8505 166.897 29.2153 165.479 27.795C163.172 25.4547 160.825 23.1483 158.659 20.6845C156.36 18.119 154.864 14.9362 154.354 11.5293C154.016 9.35834 154.305 7.13586 155.188 5.1238C155.621 4.13536 156.578 3.72593 157.55 3.38433C159.488 2.70357 161.363 1.87987 163.327 1.33719C165.491 0.738796 167.729 0.806631 169.967 1.02225C172.794 1.29601 175.297 2.35713 177.608 3.94397C180.922 6.22368 183.202 9.3053 184.609 13.0531C184.693 13.2892 184.754 13.5325 184.793 13.7799C184.968 14.7726 185.446 15.6867 186.162 16.3964C187.506 17.7652 187.693 19.5192 187.564 21.3338C187.533 21.7698 187.448 22.2035 187.431 22.6396C187.457 22.8102 187.515 22.9745 187.601 23.1241C187.732 22.9981 187.916 22.8964 187.984 22.7413C188.771 20.9726 188.931 18.9879 188.437 17.1159C188.366 16.7816 188.478 16.4109 188.502 16.0354Z" fill="#A48D78"/>
<path d="M149.037 12.8277C148.1 12.2729 147.24 11.7448 146.372 11.2482C143.003 9.34154 139.364 8.34098 135.515 8.0115C131.08 7.61581 126.627 8.54315 122.719 10.6764C117.605 13.4043 113.971 17.564 112.145 23.1095C109.662 30.6706 110.556 37.8537 114.996 44.5039C117.327 48.0292 120.7 50.7393 124.645 52.2564C126.547 53.0099 128.465 53.6082 130.517 53.71C132.402 53.8069 134.299 54.0589 136.169 53.9523C138.739 53.7924 141.256 53.1479 143.678 52.2734C147.123 51.0507 150.365 49.3186 153.296 47.1349C154.611 46.1513 155.89 45.1144 157.186 44.1042C157.215 44.08 157.266 44.0824 157.446 44.0364C157.399 44.2329 157.333 44.4244 157.249 44.6081C154.277 49.4728 150.648 53.7488 145.885 56.9636C142.486 59.3123 138.556 60.7792 134.449 61.2323C130.931 61.6079 127.552 60.961 124.163 60.1785C120.398 59.3112 117.118 57.4772 114.121 55.1466C112.334 53.7585 110.563 52.2637 109.112 50.5436C105.684 46.5112 103.41 41.6267 102.532 36.4074C101.435 29.9825 101.961 23.7321 104.652 17.7675C107.559 11.3257 112.091 6.35683 118.46 3.12501C121.658 1.50899 125.135 0.522052 128.705 0.217824C130.374 0.0651965 132.082 -0.0656265 133.739 0.106382C136.27 0.368028 138.826 0.687818 141.273 1.37101C143.821 2.08569 146.251 3.22918 148.708 4.24912C149.502 4.57618 150.222 5.08978 150.956 5.54766C151.612 5.95467 151.719 6.44647 151.305 7.04486C150.102 8.76609 149.325 10.7479 149.037 12.8277Z" fill="#A48D78"/>
<path d="M164.715 46.0424C164.858 45.037 164.996 44.2302 165.083 43.4211C165.326 41.2407 165.042 39.1935 163.489 37.4783C162.096 35.9351 160.403 35.8115 158.533 36.3275C157.331 36.6506 156.12 36.9494 154.899 37.2239C153.259 37.5801 151.941 36.674 151.934 34.9854C151.934 34.559 151.987 34.1302 151.934 33.7111C151.894 33.4863 151.785 33.2796 151.621 33.1199C151.379 32.8631 151.006 32.7033 150.807 32.4198C150.405 31.8408 150.444 31.756 150.946 31.0583C150.744 30.9129 150.536 30.7772 150.342 30.6246C149.846 30.2346 149.599 29.6216 149.918 29.1565C150.473 28.3546 150.018 28.1462 149.434 27.8773C149.204 27.7674 148.988 27.63 148.792 27.4679C148.029 26.8647 148.014 26.1694 148.596 25.3868C149.289 24.4517 149.914 23.4632 150.522 22.4797C150.723 22.1477 150.863 21.7335 150.156 21.6947C149.899 21.6905 149.653 21.5876 149.469 21.4072C149.286 21.2268 149.179 20.9828 149.17 20.7257C149.204 20.6966 149.233 20.6505 149.267 20.6481C150.856 20.5609 150.987 20.4737 150.633 18.8505C149.962 15.7713 150.597 12.8956 151.806 10.0829C151.878 9.94901 151.959 9.81958 152.048 9.69531C152.103 9.96642 152.142 10.2407 152.164 10.5166C152.125 12.6604 152.447 14.7955 153.116 16.8324C153.954 19.2551 155.374 21.3362 157.082 23.1895C159.337 25.6364 161.74 27.9452 164.059 30.3363C165.681 31.9635 166.888 33.958 167.576 36.1507C168.15 38.0445 168.013 40.0827 167.191 41.8827C166.619 43.1861 165.834 44.3926 165.134 45.6378C165.086 45.742 164.962 45.8146 164.715 46.0424Z" fill="#A48D78"/>
<path d="M38.4516 128.391C38.5324 131.371 39.4142 133.416 41.097 134.528H31C32.0804 133.775 32.7918 132.871 33.1342 131.817C33.5085 130.511 33.6809 129.155 33.6454 127.797V90.8059C33.6799 89.4512 33.5075 88.0991 33.1342 86.7964C32.7918 85.7434 32.0804 84.8397 31 84.0854H41.097C39.4126 85.1983 38.5308 87.243 38.4516 90.2196V128.391Z" fill="#A48D78"/>
<path d="M83.6533 84.0757H93.7503C93.0207 84.2206 92.3323 84.5254 91.7345 84.9682C91.1368 85.4109 90.6446 85.9807 90.2934 86.6364C89.5471 88.0061 89.1643 89.5441 89.1815 91.1038V134.523H87.9193L64.1788 102.655L62.0131 99.7963L56.1845 91.9324V127.497C56.1661 129.057 56.549 130.595 57.2964 131.964C57.6478 132.619 58.1398 133.188 58.737 133.631C59.3343 134.073 60.022 134.377 60.7509 134.523H50.6539C52.1753 133.847 53.2775 132.895 53.9606 131.664C54.6287 130.481 54.98 129.146 54.9805 127.788V90.3286L50.293 84.0757H56.3153L64.1909 94.6772L87.9314 126.545V90.8058C87.9319 89.451 87.5911 88.118 86.9406 86.9296C86.272 85.7102 85.1762 84.7589 83.6533 84.0757Z" fill="#A48D78"/>
<path d="M102.646 84.0757H139.489V89.7931C139.34 89.0661 139.03 88.3816 138.583 87.7891C138.136 87.1966 137.563 86.711 136.905 86.3675C135.538 85.6318 134.009 85.2527 132.457 85.2652H110.095V108.794H125.303C126.86 108.805 128.397 108.438 129.78 107.723C130.445 107.394 131.026 106.917 131.479 106.329C131.933 105.742 132.246 105.058 132.396 104.331V114.279C131.947 113.287 131.28 112.41 130.444 111.713C129.744 111.106 128.926 110.65 128.041 110.374C127.245 110.156 126.423 110.048 125.599 110.054H110.095V128.398C110.175 131.378 111.057 133.424 112.74 134.535H102.646C103.726 133.782 104.437 132.878 104.78 131.824C105.154 130.518 105.326 129.163 105.291 127.805V90.8058C105.302 89.9296 105.252 89.0537 105.141 88.1845C105.011 87.4213 104.756 86.6847 104.387 86.0041C103.979 85.2242 103.38 84.5607 102.646 84.0757Z" fill="#A48D78"/>
<path d="M154.817 128.391C154.898 131.371 155.779 133.416 157.462 134.527H147.365C148.446 133.775 149.156 132.871 149.497 131.817C149.838 130.762 150.008 129.422 150.008 127.797V99.9199C150.041 98.5716 149.869 97.2262 149.497 95.9298C149.116 94.8022 148.364 93.8366 147.365 93.1898H157.462C155.779 94.3413 154.898 96.386 154.817 99.3239V128.391ZM147.845 84.4319C147.806 84.4134 147.774 84.3836 147.752 84.3464C147.73 84.3093 147.721 84.2664 147.724 84.2235C147.721 84.1807 147.731 84.138 147.753 84.1008C147.774 84.0637 147.806 84.0339 147.845 84.0152C150.007 83.4192 151.45 81.8509 152.171 79.3104C152.196 79.2688 152.231 79.2353 152.275 79.2142C152.318 79.193 152.366 79.1852 152.414 79.1917C152.532 79.1917 152.593 79.2304 152.593 79.3104C153.475 82.0883 154.918 83.6566 156.922 84.0152C156.964 84.0392 156.997 84.0751 157.018 84.1182C157.039 84.1614 157.047 84.2098 157.041 84.2574C157.041 84.3761 157.002 84.4343 156.922 84.4343C154.517 85.35 153.074 86.9191 152.593 89.1415C152.593 89.2214 152.532 89.2602 152.414 89.2602C152.366 89.2667 152.318 89.2588 152.275 89.2377C152.231 89.2166 152.196 89.1831 152.171 89.1415C151.771 87.1533 150.329 85.5834 147.845 84.4319Z" fill="#A48D78"/>
<path d="M199.776 84.0757H209.873C209.144 84.2206 208.456 84.5254 207.858 84.9682C207.261 85.411 206.769 85.9808 206.418 86.6364C205.67 88.0054 205.284 89.5435 205.299 91.1038V134.523H204.037L180.296 102.655L178.133 99.7963L172.302 91.9324V127.497C172.285 129.057 172.668 130.595 173.414 131.964C173.767 132.62 174.26 133.189 174.858 133.632C175.457 134.074 176.146 134.378 176.876 134.523H166.781C168.303 133.847 169.404 132.895 170.086 131.664C170.754 130.481 171.107 129.146 171.108 127.788V90.3286L166.418 84.0757H172.428L180.301 94.6772L204.042 126.545V90.8058C204.041 89.4508 203.7 88.1178 203.049 86.9296C202.39 85.7102 201.299 84.7589 199.776 84.0757Z" fill="#A48D78"/>
<path d="M226.101 128.391C226.182 131.371 227.064 133.416 228.747 134.527H218.65C219.73 133.775 220.442 132.871 220.784 131.817C221.156 130.51 221.326 129.155 221.288 127.797V99.9199C221.32 98.5717 221.147 97.2264 220.777 95.9298C220.394 94.8025 219.642 93.8372 218.643 93.1898H228.74C227.057 94.3413 226.175 96.386 226.094 99.3239L226.101 128.391ZM219.13 84.4319C219.091 84.4133 219.059 84.3834 219.038 84.3462C219.016 84.309 219.007 84.2662 219.011 84.2235C219.007 84.1809 219.017 84.1382 219.038 84.1011C219.059 84.0639 219.091 84.034 219.13 84.0152C221.295 83.4192 222.741 81.8509 223.468 79.3104C223.492 79.2688 223.528 79.2353 223.571 79.2142C223.614 79.193 223.663 79.1852 223.71 79.1917C223.832 79.1917 223.89 79.2304 223.89 79.3104C224.772 82.0883 226.215 83.6566 228.219 84.0152C228.26 84.0392 228.294 84.0751 228.315 84.1182C228.336 84.1614 228.344 84.2098 228.337 84.2574C228.337 84.3761 228.299 84.4343 228.219 84.4343C225.814 85.35 224.371 86.9191 223.89 89.1415C223.89 89.2214 223.832 89.2602 223.71 89.2602C223.663 89.2667 223.614 89.2588 223.571 89.2377C223.528 89.2166 223.492 89.1831 223.468 89.1415C223.06 87.1533 221.613 85.5834 219.13 84.4319Z" fill="#A48D78"/>
<path d="M254.653 84.0757H270.581V89.7931C270.431 89.0663 270.121 88.382 269.674 87.7895C269.227 87.1971 268.654 86.7114 267.997 86.3675C266.63 85.6324 265.1 85.2533 263.549 85.2652H255.615V128.388C255.694 131.368 256.575 133.414 258.258 134.525H248.161C249.245 133.772 249.956 132.869 250.295 131.814C250.67 130.508 250.842 129.153 250.806 127.795V85.2652H243.173C241.612 85.2553 240.072 85.6341 238.694 86.3675C238.03 86.7071 237.451 87.191 236.998 87.7838C236.546 88.3766 236.232 89.0632 236.08 89.7931V84.0757H254.653Z" fill="#A48D78"/>
<path d="M307.968 85.2651H285.608V108.794H300.814C302.371 108.805 303.907 108.438 305.291 107.723C305.956 107.393 306.537 106.917 306.99 106.329C307.443 105.741 307.757 105.058 307.907 104.331V114.279C307.185 112.772 306.203 111.69 304.961 111.032C303.778 110.398 302.457 110.065 301.114 110.063H285.61V133.335H307.97C309.522 133.349 311.052 132.97 312.418 132.233C313.076 131.89 313.649 131.404 314.097 130.812C314.544 130.219 314.853 129.535 315.003 128.807V134.523H278.156C279.24 133.77 279.951 132.866 280.29 131.812C280.665 130.506 280.837 129.15 280.802 127.792V90.8057C280.813 89.9295 280.763 89.0536 280.651 88.1844C280.521 87.4216 280.268 86.6851 279.9 86.004C279.492 85.221 278.892 84.5542 278.156 84.0659H315.003V89.7834C314.852 89.0566 314.542 88.3722 314.095 87.7798C313.648 87.1873 313.075 86.7016 312.418 86.3577C311.05 85.6256 309.519 85.2499 307.968 85.2651Z" fill="#A48D78"/>
<path d="M104.869 166.26C104.824 166.208 104.79 166.149 104.769 166.084C104.748 166.02 104.739 165.952 104.745 165.884C104.75 165.816 104.769 165.75 104.8 165.69C104.832 165.629 104.875 165.576 104.927 165.533C104.98 165.485 105.042 165.448 105.11 165.425C105.177 165.402 105.249 165.393 105.32 165.398C105.391 165.404 105.461 165.424 105.524 165.457C105.587 165.49 105.643 165.535 105.688 165.591C106.507 166.839 108.67 168.866 112.209 168.866C116.42 168.866 118.115 166.635 118.232 164.578C118.408 162.027 116.361 160.46 112.209 159.854C109.138 159.389 107.091 158.434 106.039 156.983C105.705 156.515 105.47 155.982 105.349 155.419C105.228 154.857 105.224 154.275 105.337 153.71C105.775 151.421 108.173 149.216 112.326 149.391C113.431 149.416 114.513 149.709 115.48 150.244C116.447 150.779 117.271 151.54 117.88 152.462C117.936 152.512 117.98 152.572 118.01 152.639C118.041 152.707 118.056 152.78 118.056 152.854C118.056 152.928 118.041 153.001 118.01 153.068C117.98 153.136 117.936 153.196 117.88 153.245C117.771 153.335 117.631 153.38 117.49 153.369C117.348 153.358 117.216 153.293 117.122 153.187C116.274 152.029 114.782 150.58 112.238 150.493C108.728 150.318 106.742 152.174 106.449 153.885C105.923 156.872 108.699 158.204 112.355 158.754C118.411 159.653 119.489 162.55 119.344 164.665C119.198 167.129 117.18 169.969 112.209 169.969C108.232 169.971 105.775 167.713 104.869 166.26Z" fill="#A48D78"/>
<path d="M142.181 150.091C142.182 150.233 142.128 150.37 142.03 150.473C141.932 150.577 141.797 150.637 141.655 150.643H135.223V169.276C135.225 169.349 135.212 169.422 135.185 169.491C135.158 169.559 135.117 169.621 135.064 169.673C135.012 169.724 134.95 169.765 134.881 169.792C134.813 169.818 134.74 169.831 134.666 169.828C134.524 169.822 134.39 169.761 134.292 169.658C134.194 169.555 134.14 169.418 134.14 169.276V150.643H127.735C127.66 150.648 127.584 150.638 127.513 150.612C127.442 150.587 127.377 150.547 127.321 150.495C127.266 150.444 127.222 150.381 127.192 150.312C127.162 150.242 127.146 150.168 127.146 150.092C127.146 150.016 127.162 149.941 127.192 149.872C127.222 149.803 127.266 149.74 127.321 149.689C127.377 149.637 127.442 149.597 127.513 149.572C127.584 149.546 127.66 149.536 127.735 149.541H141.655C141.797 149.546 141.931 149.607 142.029 149.71C142.127 149.812 142.182 149.949 142.181 150.091Z" fill="#A48D78"/>
<path d="M151.745 161.858V150.062C151.745 149.989 151.76 149.917 151.788 149.851C151.816 149.784 151.857 149.723 151.909 149.672C151.96 149.621 152.021 149.58 152.088 149.553C152.155 149.525 152.227 149.511 152.3 149.512C152.373 149.509 152.446 149.521 152.515 149.547C152.583 149.574 152.646 149.614 152.698 149.666C152.75 149.717 152.791 149.779 152.819 149.847C152.846 149.915 152.859 149.988 152.857 150.062V161.858C152.857 165.683 156.043 168.813 159.904 168.813C160.822 168.818 161.732 168.642 162.582 168.295C163.432 167.948 164.205 167.437 164.858 166.791C165.51 166.145 166.029 165.377 166.384 164.53C166.74 163.684 166.925 162.776 166.929 161.858V150.062C166.931 149.987 166.947 149.913 166.977 149.845C167.007 149.776 167.051 149.715 167.105 149.663C167.16 149.612 167.224 149.572 167.294 149.546C167.364 149.52 167.439 149.509 167.513 149.512C167.586 149.511 167.658 149.525 167.725 149.553C167.792 149.58 167.853 149.621 167.904 149.672C167.956 149.723 167.997 149.784 168.025 149.851C168.053 149.917 168.068 149.989 168.068 150.062V161.858C168.031 163.997 167.155 166.036 165.63 167.536C164.104 169.036 162.05 169.877 159.91 169.877C157.771 169.877 155.717 169.036 154.191 167.536C152.665 166.036 151.789 163.997 151.752 161.858H151.745Z" fill="#A48D78"/>
<path d="M195.548 159.684C195.533 162.386 194.447 164.971 192.528 166.873C190.609 168.774 188.015 169.837 185.313 169.828H179.742C179.591 169.829 179.447 169.773 179.337 169.67C179.228 169.567 179.163 169.426 179.155 169.276V150.028C179.162 149.957 179.182 149.889 179.215 149.826C179.248 149.764 179.293 149.708 179.347 149.663C179.402 149.618 179.465 149.584 179.532 149.564C179.6 149.543 179.671 149.536 179.742 149.543H185.313C186.652 149.535 187.978 149.791 189.218 150.297C190.457 150.803 191.584 151.548 192.535 152.49C193.486 153.432 194.241 154.552 194.758 155.787C195.275 157.021 195.544 158.346 195.548 159.684ZM194.466 159.684C194.464 158.487 194.225 157.301 193.763 156.196C193.302 155.091 192.626 154.089 191.776 153.246C190.925 152.403 189.916 151.736 188.807 151.285C187.698 150.833 186.511 150.605 185.313 150.614H180.226V168.668L185.313 168.755C186.51 168.761 187.696 168.531 188.804 168.078C189.912 167.626 190.919 166.959 191.769 166.117C192.619 165.274 193.295 164.273 193.758 163.169C194.22 162.065 194.461 160.881 194.466 159.684Z" fill="#A48D78"/>
<path d="M211.631 169.276C211.631 169.348 211.617 169.42 211.589 169.488C211.561 169.555 211.52 169.616 211.469 169.667C211.417 169.718 211.356 169.759 211.289 169.787C211.221 169.814 211.149 169.828 211.077 169.828H205.747C205.672 169.833 205.596 169.823 205.525 169.797C205.454 169.772 205.388 169.732 205.333 169.68C205.278 169.629 205.234 169.566 205.204 169.497C205.174 169.427 205.158 169.353 205.158 169.277C205.158 169.201 205.174 169.126 205.204 169.057C205.234 168.988 205.278 168.925 205.333 168.874C205.388 168.822 205.454 168.782 205.525 168.757C205.596 168.731 205.672 168.721 205.747 168.726H207.852V150.643H205.747C205.672 150.648 205.596 150.638 205.525 150.612C205.454 150.587 205.388 150.547 205.333 150.495C205.278 150.444 205.234 150.381 205.204 150.312C205.174 150.242 205.158 150.168 205.158 150.092C205.158 150.016 205.174 149.941 205.204 149.872C205.234 149.803 205.278 149.74 205.333 149.689C205.388 149.637 205.454 149.597 205.525 149.572C205.596 149.546 205.672 149.536 205.747 149.541H211.077C211.152 149.536 211.228 149.546 211.299 149.572C211.37 149.597 211.435 149.637 211.491 149.689C211.546 149.74 211.59 149.803 211.62 149.872C211.65 149.941 211.665 150.016 211.665 150.092C211.665 150.168 211.65 150.242 211.62 150.312C211.59 150.381 211.546 150.444 211.491 150.495C211.435 150.547 211.37 150.587 211.299 150.612C211.228 150.638 211.152 150.648 211.077 150.643H208.971V168.726H211.077C211.149 168.725 211.221 168.739 211.288 168.767C211.355 168.794 211.416 168.835 211.468 168.886C211.519 168.937 211.56 168.998 211.588 169.065C211.616 169.131 211.631 169.203 211.631 169.276Z" fill="#A48D78"/>
<path d="M220.346 159.655C220.346 153.945 225.055 149.308 230.816 149.308C236.576 149.308 241.254 153.945 241.254 159.655C241.254 165.365 236.547 170 230.816 170C225.084 170 220.346 165.363 220.346 159.655ZM240.113 159.655C240.127 157.809 239.592 156.001 238.577 154.459C237.561 152.918 236.11 151.713 234.408 150.998C232.707 150.282 230.831 150.089 229.019 150.442C227.207 150.794 225.541 151.678 224.232 152.979C222.923 154.281 222.03 155.942 221.667 157.752C221.303 159.562 221.486 161.439 222.192 163.145C222.897 164.851 224.094 166.309 225.629 167.333C227.165 168.358 228.97 168.903 230.816 168.9C233.273 168.903 235.632 167.932 237.375 166.199C239.118 164.466 240.102 162.113 240.113 159.655Z" fill="#A48D78"/>
</g>
<defs>
<clipPath id="clip0_103_607">
<rect width="284" height="170" fill="white" transform="translate(31)"/>
</clipPath>
</defs>
</svg>
