<svg width="369" height="66" viewBox="0 0 369 66" fill="none" xmlns="http://www.w3.org/2000/svg">
<g clip-path="url(#clip0_83_396)">
<path d="M87.0022 18.1113C89.3443 17.9654 90.8371 19.2076 92.1426 20.6424C93.4201 22.0744 94.0757 23.9452 93.9678 25.8505C93.8837 27.6982 93.2222 29.4749 92.0741 30.9363C91.5228 31.6654 90.8977 32.3373 90.4045 32.9206C91.623 32.832 92.6675 31.9545 93.646 30.9597L93.8306 31.0222C93.5669 31.7826 93.3822 32.6029 92.984 33.2956C91.4991 35.8996 89.1306 37.2017 86.1872 37.5141C85.3864 37.5985 84.5766 37.5225 83.8062 37.2907C83.0358 37.0589 82.3207 36.6761 81.7035 36.1652C80.4349 35.1705 80.2951 34.0612 81.2499 32.7539C81.9277 31.8217 82.6135 30.8946 83.2306 29.9259C83.6104 29.3322 83.8794 28.6655 83.592 27.8687C82.4895 30.3972 80.0999 31.6967 78.2458 33.6523C77.6497 32.5065 77.1486 31.4805 76.5895 30.4858C74.9938 27.6343 72.6043 25.5094 70.0565 23.5043C67.6828 21.6424 65.4119 19.6789 63.1279 17.7233C61.5337 16.3658 60.3233 14.6234 59.6148 12.6662C59.4987 12.3485 59.3246 12.0516 59.1769 11.7443L58.9976 11.773C59.0089 12.0875 59.0362 12.4012 59.0793 12.713C59.6464 15.6009 61.2579 17.9212 63.3257 19.9211C65.4356 21.9731 67.7171 23.8636 69.8033 25.9443C71.8895 28.0249 73.8492 30.1941 75.7824 32.3972C77.2568 34.0794 78.528 35.9335 80.0156 37.6053C82.7269 40.652 85.4303 43.7196 88.3209 46.5971C91.9515 50.2675 96.2452 53.235 100.981 55.3468C103.225 56.3311 105.565 57.0759 108.025 57.3024C109.703 57.4943 111.39 57.5813 113.079 57.5628C115.545 57.4821 117.908 56.8545 120.2 55.9431C124.797 54.1203 128.207 50.9459 130.821 46.9148C132.624 44.0931 133.738 40.8963 134.076 37.5766C134.405 34.6705 134.397 31.8008 133.638 28.9832C132.522 24.8167 130.589 21.1216 127.4 18.1165C124.084 14.9582 119.894 12.8414 115.36 12.0334C109.8 11.01 104.333 11.4605 98.9578 13.0984C96.927 13.7156 94.941 14.4786 92.8099 15.1114C93.034 14.8058 93.2847 14.52 93.5589 14.2572C96.7118 11.681 100.18 9.50607 103.882 7.78354C106.783 6.46068 109.798 5.42687 112.971 5.02584C117.127 4.50503 121.186 4.89303 125.074 6.63515C127.596 7.7957 129.96 9.26463 132.111 11.0074C135.276 13.5073 137.623 16.6061 139.456 20.1034C140.901 22.8611 141.999 25.7776 142.376 28.8765C142.687 31.138 142.821 33.4198 142.777 35.7017C142.658 39.3291 141.865 42.904 140.437 46.2482C139.196 49.1334 137.506 51.809 135.426 54.1775C131.953 58.167 127.777 61.2085 122.787 63.0314C120.941 63.7136 118.929 64.0365 116.985 64.448C114.529 64.9688 112.032 64.9688 109.555 64.7084C105.687 64.3702 101.898 63.4334 98.3248 61.9324C92.7703 59.5393 87.8884 56.1384 83.3493 52.2167C80.0666 49.3926 76.9643 46.3705 74.0602 43.1676C73.8409 42.8984 73.6366 42.6176 73.4483 42.3265C73.3231 42.4743 73.2143 42.6349 73.1239 42.8056C72.4197 45.3367 70.7501 47.2455 68.9487 49.0554C66.1478 51.8521 62.8826 54.0421 59.4117 55.9405C59.2124 56.0595 58.9742 56.0977 58.747 56.0473C59.1954 55.6801 59.6517 55.3181 60.0948 54.9431C63.5419 52.0006 66.277 48.4903 67.9096 44.3081C69.1703 41.0791 68.9883 37.7563 67.3689 34.5768C66.4552 32.7978 65.2634 31.172 63.8373 29.7592C61.519 27.439 59.1585 25.1501 56.9799 22.7022C54.6689 20.1554 53.1642 16.9959 52.6518 13.614C52.3163 11.4572 52.6128 9.2507 53.5064 7.25492C53.9416 6.27319 54.9042 5.86695 55.8801 5.52842C57.8186 4.85137 59.715 4.03369 61.6825 3.49465C63.8558 2.90353 66.1082 2.97384 68.358 3.18216C71.2038 3.44257 73.7226 4.50763 76.0409 6.08309C79.3747 8.34602 81.6666 11.4058 83.0829 15.1244C83.1654 15.3582 83.2272 15.5987 83.2675 15.8431C83.4392 16.8399 83.9224 17.7587 84.6496 18.4706C86.0026 19.8273 86.1899 21.5695 86.0606 23.3689C86.029 23.8037 85.9446 24.2334 85.9261 24.6709C85.9531 24.8396 86.0112 25.002 86.0976 25.15C86.2294 25.0251 86.414 24.9209 86.4826 24.7699C87.2742 23.0135 87.4352 21.043 86.9389 19.1841C86.8519 18.856 86.9653 18.4836 87.0022 18.1113Z" fill="#66594C"/>
<path d="M47.3057 14.9265C46.3615 14.377 45.499 13.8536 44.6155 13.3641C41.2264 11.4709 37.5682 10.4814 33.699 10.1506C29.2404 9.75352 24.7625 10.6696 20.8308 12.7833C15.7062 15.5046 12.0402 19.6346 10.2097 25.1396C7.71207 32.6472 8.61144 39.7745 13.0767 46.3784C15.4207 49.8767 18.8118 52.5657 22.7773 54.0708C24.6894 54.8182 26.6201 55.4119 28.6826 55.5186C30.5789 55.615 32.4832 55.865 34.3663 55.7478C36.9494 55.5476 39.4907 54.9874 41.9147 54.0838C45.3786 52.8688 48.6386 51.1484 51.5863 48.9798C52.9051 48.0033 54.1948 46.9747 55.4977 45.9721C55.5828 45.9402 55.6713 45.9175 55.7614 45.9044C55.714 46.0995 55.6478 46.2896 55.5636 46.4721C52.5727 51.3027 48.9251 55.5473 44.1355 58.7373C40.7171 61.0684 36.7656 62.5243 32.6361 62.9741C29.0993 63.3465 25.7022 62.7137 22.292 61.9324C18.5072 61.0705 15.2077 59.2503 12.1958 56.9379C10.397 55.5577 8.61672 54.0734 7.16084 52.3625C3.71227 48.3604 1.42556 43.5111 0.543433 38.3292C-0.561665 31.9414 -0.0341716 25.736 2.67187 19.8143C5.59154 13.4187 10.1517 8.48665 16.5449 5.27844C19.7589 3.67171 23.2552 2.68871 26.8442 2.38272C28.5243 2.23429 30.2413 2.10408 31.9082 2.27335C34.4533 2.53376 37.0301 2.85145 39.483 3.53111C42.044 4.23941 44.4942 5.37479 46.9602 6.39558C47.7477 6.7643 48.5036 7.19538 49.2205 7.68459C49.8799 8.09083 49.988 8.57779 49.5713 9.17151C48.3658 10.886 47.5894 12.8583 47.3057 14.9265Z" fill="#66594C"/>
<path d="M63.0701 47.9018C63.2152 46.9018 63.3524 46.1023 63.442 45.2977C63.6794 43.1311 63.3972 41.0999 61.8384 39.3969C60.4379 37.8683 58.7341 37.7459 56.8536 38.2563C55.6457 38.5818 54.4298 38.8813 53.206 39.1443C51.555 39.501 50.231 38.6 50.223 36.923C50.223 36.5012 50.2758 36.0741 50.223 35.6574C50.1819 35.4344 50.0713 35.2295 49.9065 35.0715C49.6586 34.8111 49.2894 34.6575 49.0889 34.3762C48.6854 33.8007 48.725 33.7174 49.2287 33.0247C49.0256 32.8815 48.8173 32.7461 48.6221 32.5951C48.121 32.2071 47.8757 31.5977 48.1948 31.1368C48.754 30.3399 48.2951 30.1342 47.699 29.866C47.4688 29.7576 47.2527 29.622 47.0554 29.4624C46.2879 28.8608 46.2642 28.1603 46.855 27.3948C47.5513 26.4651 48.1737 25.486 48.7935 24.499C48.9966 24.1709 49.1364 23.7595 48.4243 23.7178C48.1654 23.7133 47.9182 23.6108 47.7337 23.4315C47.5491 23.2522 47.4414 23.0098 47.4326 22.7543C47.4669 22.7257 47.4985 22.6788 47.5302 22.6788C49.1285 22.5929 49.2604 22.5043 48.9043 20.895C48.2318 17.8378 48.87 14.9838 50.0833 12.1896C50.1628 12.0566 50.2509 11.9287 50.347 11.8068C50.403 12.0751 50.4426 12.3464 50.4657 12.6193C50.4257 14.7478 50.7494 16.8676 51.4231 18.8899C52.2644 21.3012 53.6913 23.3611 55.4083 25.2021C57.6765 27.6317 60.0951 29.9233 62.424 32.2956C64.0576 33.9124 65.2718 35.8947 65.9634 38.074C66.5396 39.9541 66.4018 41.977 65.5757 43.7639C65.0008 45.0659 64.2095 46.256 63.508 47.4929C63.4473 47.6023 63.3207 47.6726 63.0701 47.9018Z" fill="#66594C"/>
<path d="M165.416 35.759C165.474 37.9256 166.123 39.4125 167.363 40.2198H159.928C160.663 39.7555 161.22 39.0615 161.51 38.2485C161.787 37.2994 161.914 36.314 161.887 35.3267V8.44238C161.914 7.45515 161.786 6.4698 161.51 5.52062C161.221 4.70794 160.664 4.01469 159.928 3.55194H167.363C166.123 4.3592 165.474 5.84526 165.416 8.0101V35.759Z" fill="#66594C"/>
<path d="M198.691 3.55194H206.124C205.587 3.65649 205.08 3.87754 204.64 4.1991C204.201 4.52066 203.839 4.93468 203.581 5.41124C203.031 6.40673 202.749 7.52468 202.761 8.65851V40.2198H201.832L184.354 17.0592L182.771 14.976L178.47 9.26526V35.1106C178.457 36.2442 178.738 37.3623 179.287 38.3579C179.546 38.8344 179.909 39.2485 180.349 39.5704C180.789 39.8923 181.295 40.1141 181.833 40.2198H174.398C175.422 39.8133 176.279 39.0799 176.832 38.1365C177.324 37.2777 177.583 36.3081 177.584 35.3215V8.09603L174.134 3.55194H178.557L184.359 11.2574L201.838 34.4179V8.44238C201.838 7.45919 201.586 6.49192 201.107 5.62999C200.566 4.68536 199.713 3.95208 198.691 3.55194Z" fill="#66594C"/>
<path d="M212.672 3.55194H239.796V7.71845C239.686 7.18993 239.459 6.69219 239.13 6.2615C238.801 5.83082 238.379 5.47807 237.894 5.22896C236.888 4.69373 235.761 4.41786 234.618 4.42691H218.158V21.5174H229.354C230.501 21.5239 231.632 21.2558 232.651 20.7362C233.14 20.4956 233.568 20.1483 233.901 19.7207C234.235 19.293 234.466 18.7961 234.576 18.2675V25.4964C234.245 24.7768 233.753 24.141 233.136 23.6371C232.621 23.1937 232.018 22.8611 231.366 22.6606C230.783 22.5023 230.18 22.4226 229.575 22.4236H218.158V35.7564C218.219 37.923 218.869 39.4099 220.107 40.2172H212.672C213.407 39.7529 213.964 39.0589 214.254 38.2459C214.53 37.2966 214.656 36.3112 214.629 35.3241V8.44238C214.638 7.80606 214.601 7.16993 214.518 6.53881C214.423 5.98578 214.237 5.45186 213.967 4.95814C213.663 4.38885 213.217 3.90505 212.672 3.55194Z" fill="#66594C"/>
<path d="M251.079 35.759C251.14 37.9256 251.789 39.4125 253.025 40.2198H245.593C246.327 39.7547 246.884 39.061 247.175 38.2485C247.449 37.299 247.576 36.3138 247.55 35.3267V15.0671C247.569 14.0874 247.439 13.1105 247.165 12.1688C246.878 11.3482 246.321 10.6466 245.582 10.1767H253.014C251.784 11.0152 251.135 12.5021 251.068 14.6374L251.079 35.759ZM245.946 3.80974C245.918 3.79618 245.894 3.7745 245.879 3.74754C245.863 3.72058 245.856 3.68962 245.859 3.65871C245.857 3.62786 245.864 3.59703 245.879 3.57014C245.895 3.54325 245.918 3.52151 245.946 3.50767C247.539 3.0754 248.601 1.93568 249.132 0.0885339C249.149 0.0580289 249.175 0.0332935 249.207 0.0175118C249.238 0.00172998 249.274 -0.004373 249.309 -3.36321e-06C249.398 -3.36321e-06 249.443 0.0286404 249.443 0.0885339C250.09 2.10929 251.152 3.249 252.629 3.50767C252.659 3.52476 252.684 3.55016 252.699 3.58071C252.714 3.61126 252.721 3.64563 252.716 3.67954C252.716 3.76808 252.687 3.80974 252.629 3.80974C250.857 4.47465 249.795 5.61176 249.443 7.22107C249.443 7.27836 249.398 7.307 249.309 7.307C249.274 7.31126 249.239 7.30541 249.207 7.29014C249.176 7.27487 249.15 7.25086 249.132 7.22107C248.83 5.78536 247.768 4.64825 245.946 3.80974Z" fill="#66594C"/>
<path d="M284.177 3.55194H291.612C291.075 3.65717 290.568 3.87847 290.128 4.19993C289.688 4.5214 289.325 4.93506 289.066 5.41124C288.517 6.40693 288.236 7.5249 288.249 8.65851V40.2198H287.318L269.842 17.0592L268.259 14.976L263.966 9.26005V35.1106C263.953 36.2445 264.236 37.3625 264.786 38.3579C265.043 38.8349 265.405 39.2494 265.845 39.5715C266.285 39.8935 266.791 40.1149 267.328 40.2198H259.886C260.909 39.8126 261.766 39.0794 262.32 38.1365C262.812 37.2777 263.071 36.3081 263.072 35.3215V8.09603L259.619 3.55194H264.045L269.847 11.2574L287.323 34.4179V8.44238C287.323 7.45955 287.072 6.49258 286.595 5.62999C286.052 4.68572 285.199 3.95266 284.177 3.55194Z" fill="#66594C"/>
<path d="M303.556 35.759C303.618 37.9256 304.267 39.4125 305.505 40.2198H298.07C298.806 39.7555 299.363 39.0615 299.653 38.2485C299.928 37.2992 300.055 36.3138 300.027 35.3267V15.0671C300.051 14.087 299.925 13.109 299.653 12.1662C299.368 11.3451 298.81 10.6432 298.07 10.1741H305.505C304.266 11.0126 303.616 12.4995 303.556 14.6348V35.759ZM298.424 3.80974C298.395 3.79618 298.372 3.7745 298.356 3.74754C298.341 3.72058 298.334 3.68962 298.337 3.65871C298.334 3.62786 298.341 3.59703 298.357 3.57014C298.372 3.54325 298.396 3.52151 298.424 3.50767C300.017 3.0754 301.079 1.93568 301.61 0.0885339C301.627 0.0580289 301.653 0.0332935 301.684 0.0175118C301.716 0.00172998 301.751 -0.004373 301.786 -3.36321e-06C301.876 -3.36321e-06 301.921 0.0286404 301.921 0.0885339C302.57 2.10929 303.632 3.249 305.107 3.50767C305.137 3.52476 305.161 3.55016 305.177 3.58071C305.192 3.61126 305.198 3.64563 305.194 3.67954C305.194 3.76808 305.165 3.80974 305.107 3.80974C303.336 4.47465 302.274 5.61523 301.921 7.23149C301.921 7.28878 301.876 7.31742 301.786 7.31742C301.752 7.32168 301.717 7.31582 301.685 7.30055C301.654 7.28528 301.628 7.26127 301.61 7.23149C301.313 5.78884 300.251 4.64825 298.424 3.80974Z" fill="#66594C"/>
<path d="M324.574 3.55194H336.3V7.71845C336.19 7.19047 335.962 6.69333 335.633 6.26285C335.304 5.83236 334.882 5.47926 334.399 5.22896C333.392 4.69426 332.266 4.41842 331.123 4.42691H325.284V35.759C325.342 37.9256 325.991 39.4125 327.23 40.2198H319.795C320.531 39.7555 321.088 39.0615 321.378 38.2485C321.654 37.2994 321.781 36.314 321.755 35.3267V4.41649H316.134C314.985 4.40929 313.852 4.68494 312.837 5.21854C312.348 5.46465 311.921 5.81613 311.588 6.24702C311.255 6.67791 311.024 7.1772 310.912 7.70803V3.54152H324.585L324.574 3.55194Z" fill="#66594C"/>
<path d="M363.822 4.4165H347.362V21.5174H358.558C359.705 21.5239 360.836 21.2558 361.855 20.7362C362.344 20.4959 362.772 20.1487 363.105 19.721C363.438 19.2932 363.668 18.7962 363.778 18.2675V25.4964C363.337 24.4962 362.575 23.6671 361.61 23.1371C360.74 22.672 359.768 22.4269 358.779 22.4236H347.362V39.35H363.822C364.965 39.3593 366.091 39.0844 367.098 38.5506C367.582 38.3003 368.003 37.9472 368.332 37.5167C368.661 37.0862 368.889 36.5891 369 36.0611V40.2276H341.876C342.611 39.7625 343.168 39.0689 343.458 38.2563C343.733 37.3068 343.859 36.3216 343.833 35.3345V8.44238C343.842 7.80606 343.805 7.16993 343.722 6.53881C343.627 5.98578 343.441 5.45186 343.171 4.95814C342.87 4.39008 342.428 3.90639 341.887 3.55194H369V7.71845C368.889 7.19047 368.661 6.69333 368.332 6.26285C368.003 5.83236 367.582 5.47926 367.098 5.22896C366.093 4.69064 364.966 4.41121 363.822 4.4165Z" fill="#66594C"/>
<path d="M214.31 63.284C214.278 63.2472 214.253 63.2044 214.238 63.1582C214.223 63.112 214.217 63.0633 214.221 63.0149C214.225 62.9664 214.238 62.9192 214.261 62.876C214.284 62.8328 214.315 62.7944 214.352 62.7631C214.391 62.7284 214.437 62.7019 214.487 62.6852C214.537 62.6685 214.59 62.6618 214.642 62.6657C214.695 62.6696 214.746 62.6839 214.792 62.7078C214.839 62.7317 214.881 62.7647 214.914 62.8048C215.456 63.5585 216.177 64.1696 217.014 64.5845C217.851 64.9994 218.778 65.2056 219.714 65.1849C222.813 65.1849 224.061 63.5626 224.148 62.0601C224.277 60.206 222.771 59.0706 219.714 58.6279C217.454 58.2894 215.945 57.5863 215.17 56.5446C214.921 56.2047 214.747 55.8181 214.656 55.4087C214.565 54.9992 214.56 54.5758 214.642 54.1645C214.964 52.5005 216.729 50.899 219.785 51.0396C220.6 51.055 221.398 51.2648 222.112 51.6512C222.826 52.0376 223.435 52.589 223.887 53.2583C223.927 53.2942 223.96 53.3382 223.982 53.3873C224.004 53.4364 224.016 53.4896 224.016 53.5435C224.016 53.5973 224.004 53.6505 223.982 53.6996C223.96 53.7487 223.927 53.7927 223.887 53.8286C223.806 53.8936 223.702 53.9253 223.598 53.9171C223.494 53.9088 223.397 53.8613 223.328 53.7843C222.927 53.2011 222.393 52.7196 221.768 52.3793C221.143 52.039 220.446 51.8494 219.733 51.8261C217.148 51.7011 215.684 53.0474 215.471 54.2895C215.083 56.4613 217.127 57.43 219.817 57.8284C224.274 58.4821 225.071 60.5888 224.963 62.1252C224.855 63.9168 223.38 65.9818 219.712 65.9818C216.787 65.9818 214.977 64.3386 214.31 63.284Z" fill="#66594C"/>
<path d="M241.779 51.5318C241.779 51.6353 241.739 51.735 241.667 51.8098C241.595 51.8847 241.496 51.9288 241.391 51.9328H236.644V65.474C236.645 65.5274 236.636 65.5805 236.616 65.6302C236.596 65.6799 236.566 65.7249 236.528 65.7626C236.489 65.8002 236.444 65.8296 236.393 65.849C236.343 65.8683 236.289 65.8772 236.235 65.875C236.13 65.8709 236.031 65.8268 235.959 65.752C235.886 65.6771 235.846 65.5774 235.847 65.474V51.9328H231.144C231.037 51.9328 230.933 51.8906 230.857 51.8154C230.781 51.7402 230.738 51.6382 230.738 51.5318C230.738 51.4255 230.781 51.3235 230.857 51.2482C230.933 51.173 231.037 51.1308 231.144 51.1308H241.391C241.496 51.1348 241.595 51.179 241.667 51.2538C241.739 51.3287 241.779 51.4284 241.779 51.5318Z" fill="#66594C"/>
<path d="M248.818 60.0836V51.511C248.818 51.4581 248.829 51.4057 248.85 51.3569C248.87 51.3081 248.9 51.2638 248.938 51.2265C248.976 51.1892 249.021 51.1597 249.071 51.1397C249.121 51.1197 249.174 51.1096 249.227 51.11C249.281 51.1078 249.335 51.1166 249.386 51.136C249.436 51.1553 249.482 51.1848 249.52 51.2224C249.559 51.26 249.589 51.3051 249.609 51.3548C249.629 51.4044 249.638 51.4576 249.636 51.511V60.0836C249.636 61.4393 250.181 62.7395 251.152 63.6981C252.123 64.6568 253.44 65.1953 254.813 65.1953C256.186 65.1953 257.503 64.6568 258.474 63.6981C259.445 62.7395 259.991 61.4393 259.991 60.0836V51.511C259.991 51.4565 260.003 51.4027 260.025 51.3528C260.047 51.3029 260.079 51.2579 260.12 51.2205C260.16 51.1831 260.207 51.154 260.259 51.135C260.31 51.116 260.365 51.1075 260.421 51.11C260.474 51.1096 260.527 51.1197 260.577 51.1397C260.626 51.1597 260.671 51.1892 260.709 51.2265C260.747 51.2638 260.778 51.3081 260.798 51.3569C260.819 51.4057 260.829 51.4581 260.829 51.511V60.0836C260.829 61.6562 260.197 63.1643 259.07 64.2763C257.944 65.3883 256.417 66.013 254.824 66.013C253.231 66.013 251.704 65.3883 250.577 64.2763C249.451 63.1643 248.818 61.6562 248.818 60.0836Z" fill="#66594C"/>
<path d="M281.065 58.5029C281.053 60.466 280.254 62.3446 278.842 63.7266C277.43 65.1086 275.52 65.8812 273.532 65.875H269.42C269.31 65.8765 269.203 65.8354 269.123 65.7605C269.043 65.6857 268.995 65.5829 268.99 65.474V51.4902C268.994 51.4384 269.008 51.388 269.032 51.3417C269.055 51.2954 269.088 51.2544 269.128 51.2209C269.168 51.1874 269.215 51.1621 269.265 51.1467C269.315 51.1312 269.368 51.1258 269.42 51.1308H273.532C274.518 51.1239 275.495 51.3094 276.408 51.6767C277.32 52.0439 278.15 52.5857 278.85 53.2708C279.55 53.9558 280.106 54.7707 280.486 55.6687C280.866 56.5666 281.063 57.5298 281.065 58.5029ZM280.273 58.5029C280.272 57.6327 280.096 56.7714 279.756 55.9684C279.416 55.1655 278.919 54.4368 278.293 53.8241C277.667 53.2114 276.925 52.7269 276.109 52.3983C275.292 52.0697 274.419 51.9036 273.537 51.9094H269.779V65.0313L273.524 65.0938C274.405 65.0989 275.279 64.9324 276.095 64.6039C276.911 64.2753 277.654 63.7911 278.28 63.1789C278.907 62.5668 279.404 61.8387 279.746 61.0363C280.087 60.234 280.264 59.3731 280.268 58.5029H280.273Z" fill="#66594C"/>
<path d="M292.904 65.474C292.904 65.5269 292.893 65.5792 292.873 65.628C292.852 65.6769 292.822 65.7212 292.784 65.7585C292.746 65.7957 292.701 65.8252 292.651 65.8452C292.602 65.8652 292.549 65.8753 292.495 65.875H288.579C288.523 65.8795 288.466 65.8724 288.413 65.8544C288.36 65.8363 288.312 65.8076 288.27 65.77C288.229 65.7325 288.196 65.6869 288.174 65.6362C288.151 65.5854 288.14 65.5307 288.14 65.4753C288.14 65.4199 288.151 65.3651 288.174 65.3144C288.196 65.2636 288.229 65.2181 288.27 65.1805C288.312 65.143 288.36 65.1142 288.413 65.0962C288.466 65.0781 288.523 65.0711 288.579 65.0756H290.129V51.9328H288.579C288.471 51.9328 288.367 51.8906 288.291 51.8154C288.215 51.7402 288.172 51.6382 288.172 51.5318C288.172 51.4255 288.215 51.3235 288.291 51.2482C288.367 51.173 288.471 51.1308 288.579 51.1308H292.495C292.603 51.1308 292.706 51.173 292.782 51.2482C292.859 51.3235 292.901 51.4255 292.901 51.5318C292.901 51.6382 292.859 51.7402 292.782 51.8154C292.706 51.8906 292.603 51.9328 292.495 51.9328H290.947V65.0756H292.495C292.549 65.0749 292.602 65.0847 292.651 65.1044C292.701 65.1241 292.746 65.1533 292.784 65.1904C292.822 65.2275 292.852 65.2716 292.873 65.3203C292.893 65.369 292.904 65.4212 292.904 65.474Z" fill="#66594C"/>
<path d="M299.318 58.4821C299.302 56.9764 299.74 55.5001 300.575 54.2405C301.411 52.9809 302.607 51.9948 304.011 51.4074C305.415 50.82 306.965 50.6577 308.462 50.9412C309.96 51.2246 311.339 51.9411 312.424 52.9995C313.508 54.058 314.25 55.4108 314.555 56.8862C314.859 58.3616 314.713 59.8931 314.134 61.2863C313.556 62.6795 312.571 63.8716 311.305 64.7113C310.04 65.551 308.55 66.0004 307.024 66.0026C304.993 66.0109 303.042 65.2241 301.597 63.8144C300.153 62.4048 299.333 60.4873 299.318 58.4821ZM313.869 58.4821C313.879 57.1408 313.486 55.8267 312.739 54.7064C311.992 53.5862 310.924 52.7103 309.672 52.1899C308.42 51.6694 307.04 51.5279 305.706 51.7832C304.372 52.0386 303.146 52.6792 302.181 53.624C301.217 54.5688 300.559 55.7751 300.29 57.0898C300.021 58.4046 300.154 59.7686 300.671 61.0088C301.188 62.249 302.067 63.3095 303.196 64.0558C304.325 64.8021 305.653 65.2005 307.011 65.2006C308.823 65.2068 310.563 64.5027 311.849 63.2429C313.136 61.9832 313.863 60.2709 313.871 58.4821H313.869Z" fill="#66594C"/>
</g>
<defs>
<clipPath id="clip0_83_396">
<rect width="369" height="66" fill="white"/>
</clipPath>
</defs>
</svg>
